
Currently Loaded Modules:
  1) CUDA/12.8.0                   12) Brotli/1.0.9-GCCcore-12.3.0
  2) GCCcore/12.3.0                13) freetype/2.13.0-GCCcore-12.3.0
  3) NASM/2.16.01-GCCcore-12.3.0   14) util-linux/2.39-GCCcore-12.3.0
  4) zlib/1.2.13-GCCcore-12.3.0    15) fontconfig/2.14.2-GCCcore-12.3.0
  5) bzip2/1.0.8-GCCcore-12.3.0    16) xorg-macros/1.20.0-GCCcore-12.3.0
  6) x264/20230226-GCCcore-12.3.0  17) libpciaccess/0.17-GCCcore-12.3.0
  7) ncurses/6.4-GCCcore-12.3.0    18) X11/20230603-GCCcore-12.3.0
  8) LAME/3.100-GCCcore-12.3.0     19) FriBidi/1.0.12-GCCcore-12.3.0
  9) x265/3.5-GCCcore-12.3.0       20) SDL2/2.28.2-GCCcore-12.3.0
 10) expat/2.5.0-GCCcore-12.3.0    21) FFmpeg/6.0-GCCcore-12.3.0
 11) libpng/1.6.39-GCCcore-12.3.0

 

nvcc warning : Support for offline compilation for architectures prior to '<compute/sm/lto>_75' will be removed in a future release (Use -Wno-deprecated-gpu-targets to suppress warning).
ffmpeg version 6.0 Copyright (c) 2000-2023 the FFmpeg developers
  built with gcc 12.3.0 (GCC)
  configuration: --prefix=/cvmfs/sling.si/modules/el7/software/FFmpeg/6.0-GCCcore-12.3.0 --enable-pic --enable-shared --enable-gpl --enable-version3 --enable-nonfree --cc=gcc --cxx=g++ --enable-libx264 --enable-libx265 --enable-libmp3lame --enable-libfreetype --enable-fontconfig --enable-libfribidi --enable-sdl2
  libavutil      58.  2.100 / 58.  2.100
  libavcodec     60.  3.100 / 60.  3.100
  libavformat    60.  3.100 / 60.  3.100
  libavdevice    60.  1.100 / 60.  1.100
  libavfilter     9.  3.100 /  9.  3.100
  libswscale      7.  1.100 /  7.  1.100
  libswresample   4. 10.100 /  4. 10.100
  libpostproc    57.  1.100 / 57.  1.100
Input #0, image2, from 'frames_Solitons_Video_N256_F0.030_k0.060/frame_%05d.ppm':
  Duration: 00:00:10.00, start: 0.000000, bitrate: N/A
  Stream #0:0: Video: ppm, rgb24, 256x256, 30 fps, 30 tbr, 30 tbn
Stream mapping:
  Stream #0:0 -> #0:0 (ppm (native) -> h264 (libx264))
Press [q] to stop, [?] for help
[libx264 @ 0x167c240] using cpu capabilities: MMX2 SSE2Fast SSSE3 SSE4.2 AVX FMA3 BMI2 AVX2
[libx264 @ 0x167c240] profile High, level 1.3, 4:2:0, 8-bit
[libx264 @ 0x167c240] 264 - core 164 - H.264/MPEG-4 AVC codec - Copyleft 2003-2022 - http://www.videolan.org/x264.html - options: cabac=1 ref=3 deblock=1:0:0 analyse=0x3:0x113 me=hex subme=7 psy=1 psy_rd=1.00:0.00 mixed_ref=1 me_range=16 chroma_me=1 trellis=1 8x8dct=1 cqm=0 deadzone=21,11 fast_pskip=1 chroma_qp_offset=-2 threads=12 lookahead_threads=2 sliced_threads=0 nr=0 decimate=1 interlaced=0 bluray_compat=0 constrained_intra=0 bframes=3 b_pyramid=2 b_adapt=1 b_bias=0 direct=1 weightb=1 open_gop=0 weightp=2 keyint=250 keyint_min=25 scenecut=40 intra_refresh=0 rc_lookahead=40 rc=crf mbtree=1 crf=23.0 qcomp=0.60 qpmin=0 qpmax=69 qpstep=4 ip_ratio=1.40 aq=1:1.00
Output #0, mp4, to 'Solitons_Video_N256_F0.030_k0.060_steps15000_fps30.mp4':
  Metadata:
    encoder         : Lavf60.3.100
  Stream #0:0: Video: h264 (avc1 / 0x31637661), yuv420p(tv, progressive), 256x256, q=2-31, 30 fps, 15360 tbn
    Metadata:
      encoder         : Lavc60.3.100 libx264
    Side data:
      cpb: bitrate max/min/avg: 0/0/0 buffer size: 0 vbv_delay: N/A
frame=    0 fps=0.0 q=0.0 size=       0kB time=-577014:32:22.77 bitrate=  -0.0kbits/s speed=N/A    frame=  122 fps=0.0 q=29.0 size=     256kB time=00:00:04.00 bitrate= 524.4kbits/s speed=7.99x    frame=  300 fps=0.0 q=-1.0 Lsize=     777kB time=00:00:09.90 bitrate= 642.6kbits/s speed=10.4x    
video:773kB audio:0kB subtitle:0kB other streams:0kB global headers:0kB muxing overhead: 0.488042%
[libx264 @ 0x167c240] frame I:2     Avg QP:18.90  size: 19036
[libx264 @ 0x167c240] frame P:155   Avg QP:25.65  size:  4302
[libx264 @ 0x167c240] frame B:143   Avg QP:33.37  size:   600
[libx264 @ 0x167c240] consecutive B-frames: 32.0% 10.7%  8.0% 49.3%
[libx264 @ 0x167c240] mb I  I16..4: 50.0%  0.4% 49.6%
[libx264 @ 0x167c240] mb P  I16..4:  0.6%  1.0%  0.1%  P16..4: 27.8% 13.9% 26.1%  0.0%  0.0%    skip:30.5%
[libx264 @ 0x167c240] mb B  I16..4:  0.1%  0.0%  0.0%  B16..8: 25.3%  5.8%  4.5%  direct: 6.4%  skip:57.9%  L0:41.3% L1:41.7% BI:17.0%
[libx264 @ 0x167c240] 8x8 transform intra:33.5% inter:40.6%
[libx264 @ 0x167c240] coded y,uvDC,uvAC intra: 24.3% 35.8% 31.3% inter: 31.9% 44.2% 30.9%
[libx264 @ 0x167c240] i16 v,h,dc,p: 76% 17%  7%  0%
[libx264 @ 0x167c240] i8 v,h,dc,ddl,ddr,vr,hd,vl,hu:  6%  4% 86%  1%  1%  1%  1%  0%  0%
[libx264 @ 0x167c240] i4 v,h,dc,ddl,ddr,vr,hd,vl,hu: 16% 17%  8% 10% 12%  9% 10%  8%  9%
[libx264 @ 0x167c240] i8c dc,h,v,p: 52% 25% 20%  4%
[libx264 @ 0x167c240] Weighted P-Frames: Y:27.7% UV:27.7%
[libx264 @ 0x167c240] ref P L0: 67.8% 16.0%  8.9%  5.4%  1.9%
[libx264 @ 0x167c240] ref B L0: 52.4% 42.6%  4.9%
[libx264 @ 0x167c240] ref B L1: 79.4% 20.6%
[libx264 @ 0x167c240] kb/s:632.52
